<svg width="20" height="26" viewBox="0 0 20 26" fill="none" xmlns="http://www.w3.org/2000/svg">
<path d="M2.37234 2.6L2.90712 8.2875C3.86409 7.7025 4.85391 7.25833 5.87656 6.955C6.89921 6.65167 7.94532 6.5 9.01488 6.5C9.5778 6.5 10.136 6.54333 10.6896 6.63C11.2431 6.71667 11.792 6.84667 12.3361 7.02C13.2744 7.32333 13.9921 7.52917 14.4893 7.6375C14.9866 7.74583 15.5167 7.8 16.0796 7.8H17.121L17.5995 2.6H2.37234ZM4.37073 26C3.78904 26 3.2824 25.7833 2.85082 25.35C2.41925 24.9167 2.17531 24.3642 2.11902 23.6925L0.00804182 1.43C-0.0294867 1.04 0.0643345 0.704167 0.289505 0.4225C0.514676 0.140833 0.79614 0 1.1339 0H18.8661C19.2039 0 19.4853 0.140833 19.7105 0.4225C19.9357 0.704167 20.0295 1.04 19.992 1.43L17.881 23.6925C17.8247 24.3642 17.5808 24.9167 17.1492 25.35C16.7176 25.7833 16.211 26 15.6293 26H4.37073Z" fill="black"/>
</svg>
