<svg width="32" height="34" viewBox="0 0 32 34" fill="none" xmlns="http://www.w3.org/2000/svg">
<path d="M15.3923 0.0110283C13.3097 0.112381 11.0081 0.745834 9.1006 1.74416C6.92549 2.8793 4.90123 4.58203 3.51929 6.43678C1.40744 9.26958 0.312589 12.1885 0.0352265 15.7105C-0.0669597 17.0028 0.0595565 19.0045 0.332053 20.3728C0.492631 21.1886 0.877046 22.5468 0.964634 22.6025C0.988964 22.6177 1.13008 22.5417 1.27606 22.4302C1.4269 22.3238 1.94757 22.0603 2.43417 21.8424C2.92564 21.6245 3.34411 21.4319 3.36844 21.4066C3.39277 21.3863 3.38791 21.2849 3.35871 21.1734C3.14947 20.3677 3.08621 20.0839 2.98403 19.4606C2.87211 18.7663 2.73586 17.2207 2.77479 17.0281C2.78939 16.9318 2.84291 16.9268 4.25892 16.947L5.72359 16.9622L5.80145 16.8406C5.84524 16.7697 5.9231 16.5163 5.97176 16.273C6.02528 16.0298 6.07394 15.817 6.08854 15.8068C6.09827 15.7916 6.1226 15.9082 6.14207 16.0602C6.20532 16.6481 6.6092 18.3964 6.69193 18.4572C6.93523 18.6498 7.05201 18.4673 7.26125 17.5805C7.35857 17.1649 7.43642 16.7747 7.43642 16.7139C7.43642 16.5822 7.53374 16.5011 7.53374 16.6328C7.53374 16.6835 7.56781 16.7697 7.6116 16.8254C7.67973 16.9217 7.74785 16.9268 9.78671 16.942C11.7185 16.9521 11.9034 16.947 12.0591 16.866C12.2732 16.7494 12.317 16.5467 12.1467 16.4251C12.0494 16.3541 11.7866 16.344 10.0057 16.344H7.97655L7.87923 16.0653C7.82571 15.9132 7.75272 15.6801 7.72352 15.5534C7.68459 15.4014 7.63106 15.3102 7.56781 15.2849C7.43642 15.2342 7.25638 15.2747 7.22232 15.3609C7.17853 15.4825 6.95469 16.4605 6.92063 16.6886C6.90116 16.8051 6.87197 16.9014 6.8525 16.9014C6.83304 16.9014 6.78925 16.7139 6.75518 16.4808C6.68219 15.9284 6.34157 14.1396 6.29778 14.0686C6.24425 13.9774 5.98635 14.0027 5.93769 14.099C5.91336 14.1497 5.80145 14.6007 5.68953 15.1024C5.57761 15.6041 5.47056 16.0805 5.45109 16.1666L5.41217 16.3187L4.11294 16.3339L2.81372 16.344V16.0399C2.81372 14.8845 3.22733 12.9436 3.75772 11.6159C3.95723 11.1091 4.37084 10.2375 4.54602 9.95371L4.6628 9.76114L4.38057 9.58884C4.22973 9.49256 3.95723 9.33546 3.77719 9.23411C3.40737 9.0162 3.22246 8.8135 3.1738 8.56518C3.13487 8.33207 3.2176 8.1243 3.43657 7.92666C3.59228 7.78477 3.63121 7.76957 3.85504 7.78984C4.05455 7.80504 4.22973 7.88612 4.75039 8.19525L5.3927 8.58545L5.6214 8.27126C6.8963 6.5432 8.53614 5.12933 10.429 4.13101C11.699 3.45701 13.373 2.97052 15.0177 2.78809L15.3194 2.75261V2.09382C15.3194 1.34888 15.3778 1.14618 15.6308 0.984013C15.9519 0.781307 16.3947 0.913065 16.5505 1.25766C16.6137 1.39449 16.6332 1.58199 16.6332 2.09382V2.75261L17.0127 2.78809C17.8886 2.86917 19.0224 3.11748 19.8447 3.41141C22.6816 4.42493 24.8178 6.06178 26.589 8.58545C26.5988 8.59559 26.808 8.47903 27.0562 8.32194C28.0148 7.72902 28.1267 7.69355 28.4576 7.88612C28.6863 8.02295 28.7982 8.22058 28.7982 8.4993C28.7982 8.8439 28.6474 9.02634 28.0878 9.3456C27.8201 9.49763 27.5476 9.66486 27.4746 9.71554L27.3433 9.80675L27.5428 10.1767C28.4673 11.8642 29.0366 13.8659 29.1632 15.8474L29.1972 16.344H24.4821C20.2973 16.344 19.7572 16.3541 19.6598 16.4251C19.5236 16.5214 19.5236 16.7038 19.655 16.8305C19.7523 16.9217 19.9031 16.9268 24.4821 16.9268H29.2021L29.1729 17.7123C29.134 18.6751 29.0561 19.2376 28.8031 20.4336C28.6911 20.9454 28.6036 21.3711 28.6036 21.3812C28.6036 21.3914 28.7641 21.4724 28.9588 21.5535C29.8152 21.9285 30.5256 22.2833 30.7495 22.4505C30.8809 22.5518 31.0122 22.6177 31.0366 22.6025C31.1096 22.5518 31.4161 21.4927 31.5962 20.6515C31.82 19.5873 31.9027 18.9792 31.9708 17.8237C32.2531 13.045 30.477 8.33207 27.0708 4.81514C25.2509 2.93505 23.2364 1.67321 20.599 0.75597C19.1586 0.259342 16.9105 -0.0649872 15.3923 0.0110283ZM20.6574 1.81004C20.8471 2.02794 20.8423 2.27626 20.6476 2.4739C20.4384 2.6918 19.9907 2.43842 19.9907 2.10396C19.9907 1.75429 20.4384 1.56172 20.6574 1.81004ZM11.0567 2.23065C11.2416 2.40802 11.2319 2.6614 11.0324 2.8337C10.8621 2.98573 10.794 2.99586 10.6042 2.88944C10.4436 2.80836 10.4047 2.72221 10.4047 2.48403C10.4047 2.1445 10.8037 1.9874 11.0567 2.23065ZM23.5186 3.24924C23.611 3.28978 23.7376 3.52796 23.7376 3.66479C23.7376 3.72053 23.6938 3.82188 23.6354 3.8979C23.5137 4.06006 23.2266 4.08033 23.0514 3.93337C22.9055 3.81175 22.8909 3.48235 23.0271 3.32526C23.1196 3.21884 23.3531 3.18336 23.5186 3.24924ZM7.28558 4.68845C7.50455 4.93676 7.67973 5.18001 7.67973 5.23068C7.67973 5.34724 7.48995 5.54995 7.37803 5.54995C7.29044 5.54995 6.91576 5.16481 6.60434 4.7594C6.47296 4.5871 6.46809 4.56683 6.53621 4.43507C6.69193 4.11581 6.83791 4.16648 7.28558 4.68845ZM26.4528 5.21041C26.5258 5.2915 26.5598 5.37258 26.5404 5.43339C26.5209 5.48407 26.3165 5.73745 26.083 6.00096C25.7229 6.40637 25.6402 6.47225 25.5477 6.44185C25.4504 6.40637 25.2947 6.17833 25.2947 6.06178C25.2947 6.03644 25.4942 5.78306 25.7375 5.50434C26.2095 4.95197 26.2192 4.9469 26.4528 5.21041ZM30.1753 12.1885C30.3797 12.3608 30.3894 12.7206 30.1899 12.8575C30.0731 12.9385 29.7373 12.898 29.6498 12.7967C29.5086 12.6345 29.5281 12.3507 29.6935 12.2088C29.8541 12.0618 30.0098 12.0568 30.1753 12.1885ZM2.31252 12.2493C2.45363 12.3862 2.4585 12.6345 2.32225 12.8169C2.24439 12.9183 2.18114 12.9487 2.03029 12.9487C1.78212 12.9487 1.64588 12.8119 1.64588 12.5585C1.64588 12.1835 2.04975 11.9909 2.31252 12.2493ZM1.81619 16.1058C1.90864 16.2021 1.99623 16.3389 2.01569 16.4099C2.13734 16.9268 1.62641 17.3575 1.17387 17.1193C0.84785 16.947 0.7262 16.5163 0.911108 16.2224C1.03762 16.0197 1.18847 15.9437 1.44637 15.9386C1.62155 15.9386 1.6848 15.969 1.81619 16.1058ZM30.9344 16.0703C31.2993 16.3845 31.1923 17.0281 30.7543 17.1497C30.3602 17.2663 29.966 16.9876 29.966 16.5923C29.966 16.1818 30.185 15.9386 30.5548 15.9386C30.73 15.9386 30.8225 15.969 30.9344 16.0703Z" fill="white"/>
<path d="M14.0883 3.99925C13.3292 4.22222 12.7842 5.05838 12.8523 5.90467C12.9058 6.58374 12.974 6.68509 14.5213 8.27126C15.2853 9.06181 15.9276 9.70539 15.9471 9.70539C15.9714 9.70539 16.604 9.07194 17.3534 8.29659C18.5893 7.02969 18.7402 6.86246 18.8716 6.5584C19.1538 5.92494 19.11 5.27629 18.7499 4.70365C18.2876 3.97391 17.3582 3.73066 16.5797 4.13607C16.4142 4.22222 16.1271 4.51108 16.0055 4.71885C15.9568 4.79486 15.9422 4.79993 15.9179 4.74419C15.8546 4.58202 15.48 4.21715 15.2464 4.09553C14.9544 3.93843 14.4435 3.89283 14.0883 3.99925Z" fill="white"/>
<path d="M9.31956 6.95367C9.06167 7.38442 7.40722 10.4503 7.27584 10.7341C6.87683 11.5956 6.8525 12.2747 7.19798 13.0247C7.59213 13.8913 8.41935 14.4183 9.38282 14.4183C10.3414 14.4183 11.1443 13.9014 11.5482 13.0247C11.8402 12.3963 11.8742 11.8186 11.665 11.1851C11.5482 10.8304 10.8621 9.48241 10.249 8.41315C9.99594 7.96719 9.70398 7.4503 9.60666 7.25773C9.43148 6.93847 9.36822 6.86752 9.31956 6.95367ZM8.99354 9.15809C9.12979 9.31011 9.12492 9.57363 8.98381 9.67498C8.8281 9.78647 8.71618 9.77634 8.57993 9.62938C8.43395 9.47735 8.42908 9.35572 8.56047 9.17836C8.68212 9.01619 8.85729 9.00606 8.99354 9.15809ZM8.48748 10.1767L8.61886 10.2932L8.41935 10.648C8.12739 11.1699 8.00574 11.5905 8.03494 11.9656C8.05927 12.3203 8.21011 12.67 8.41935 12.8828C8.57993 13.0399 8.58966 13.1514 8.46315 13.273C8.37069 13.3591 8.36096 13.3591 8.22958 13.2781C8.03494 13.1564 7.77217 12.7814 7.66999 12.4774C7.56293 12.148 7.55807 11.6818 7.66025 11.322C7.78677 10.8861 8.21498 10.0601 8.31717 10.0601C8.33663 10.0601 8.41449 10.1108 8.48748 10.1767Z" fill="white"/>
<path d="M22.667 7.15132C22.2632 7.23747 21.6354 7.5618 21.2851 7.86079C20.4433 8.57533 19.9859 9.63953 20.054 10.7443C20.1026 11.5906 20.3897 12.2443 20.9883 12.8676C21.9274 13.8507 23.3775 14.1041 24.6086 13.496C24.9638 13.3186 25.5477 12.7663 25.7861 12.3811C25.9613 12.0973 26.2727 11.322 26.2338 11.2612C26.2241 11.2409 26.1073 11.322 25.9808 11.4436C25.3677 12.0112 24.4285 12.2646 23.6743 12.0619C22.813 11.8287 22.122 11.0737 21.942 10.1716C21.8203 9.55338 21.9323 8.7679 22.234 8.18512C22.3751 7.9064 22.8665 7.35909 23.1536 7.16146L23.2753 7.07531H23.1293C23.0514 7.07531 22.8422 7.11078 22.667 7.15132Z" fill="white"/>
<path d="M24.0003 8.30673C23.9225 8.36755 23.9079 8.44863 23.903 8.80336C23.8981 9.03647 23.8933 9.25438 23.8884 9.28479C23.8835 9.33039 23.7619 9.35067 23.4553 9.35067C22.9979 9.35067 22.9103 9.39121 22.9103 9.58884C22.9103 9.78648 23.1001 9.86756 23.5089 9.84729L23.8738 9.83209L23.8933 10.3338C23.9079 10.7493 23.9273 10.8405 24.0052 10.9014C24.122 10.9926 24.1998 10.9926 24.2923 10.8912C24.3507 10.8304 24.3701 10.7037 24.3701 10.3338V9.85743H24.774C25.212 9.85743 25.3433 9.79155 25.3433 9.56857C25.3433 9.3608 25.1876 9.28985 24.7643 9.31012L24.3701 9.32533V8.85911C24.3701 8.43342 24.3604 8.38782 24.2631 8.31687C24.1317 8.22058 24.122 8.21552 24.0003 8.30673Z" fill="white"/>
<path d="M15.7573 11.4791C15.6649 11.5754 15.66 11.6463 15.66 13.05V14.5247L15.5043 14.4335C15.3826 14.3626 15.2318 14.3423 14.8814 14.3423C14.4629 14.3423 14.3948 14.3575 14.1613 14.4892C13.4849 14.8795 13.1491 15.7004 13.3438 16.4808C13.5822 17.4639 14.4775 18.0112 15.3583 17.7224L15.66 17.621V19.9369C15.66 22.1211 15.6649 22.263 15.7476 22.339C15.8644 22.4505 16.0639 22.4454 16.1612 22.3339C16.2342 22.2478 16.2439 22.0096 16.2439 19.9217C16.2439 17.7275 16.2488 17.6008 16.3315 17.6362C16.7938 17.844 17.256 17.844 17.6842 17.6413C18.4871 17.2562 18.8521 16.1261 18.4579 15.2595C18.3363 14.996 18.0151 14.6362 17.7621 14.4791C17.5529 14.3524 17.4896 14.3423 17.0468 14.3423C16.6721 14.3423 16.5213 14.3626 16.4045 14.4335L16.2439 14.5247V13.0298C16.2439 11.545 16.2439 11.5348 16.1369 11.4588C15.9909 11.3524 15.8741 11.3575 15.7573 11.4791ZM15.3242 15.0518C15.514 15.1582 15.6989 15.3761 15.7622 15.5737C15.806 15.7105 15.8352 15.7409 15.9373 15.7257C16.0055 15.7156 16.0785 15.6751 16.0979 15.6345C16.3023 15.1835 16.5261 14.9909 16.9105 14.9403C17.5626 14.8642 18.1611 15.5636 18.02 16.2528C17.9519 16.5771 17.7475 16.9014 17.5139 17.0433C17.003 17.3525 16.3169 17.1092 16.1417 16.5619C16.0979 16.4251 16.0639 16.3947 15.9519 16.3947C15.8352 16.3947 15.806 16.4251 15.7573 16.567C15.6405 16.9369 15.1199 17.2562 14.7695 17.1751C14.1856 17.0484 13.806 16.4859 13.8839 15.8828C13.9812 15.1632 14.7257 14.7325 15.3242 15.0518Z" fill="white"/>
<path d="M25.5039 18.6852C25.1779 18.8474 25.1536 18.8981 25.2704 19.1312C25.392 19.3744 25.319 19.3086 25.1682 19.04C25.0952 18.9082 25.0319 18.7967 25.0271 18.7866C24.9979 18.7511 24.6086 18.9842 24.5842 19.0501C24.5697 19.0856 24.6426 19.2781 24.74 19.4808C24.8421 19.6886 24.9005 19.866 24.8762 19.8913C24.8519 19.9116 24.6232 20.0282 24.3701 20.1447C24.1171 20.2613 23.7278 20.4538 23.5089 20.5704C23.1634 20.7478 23.0953 20.768 23.0077 20.7123C22.852 20.6109 22.6476 20.6413 22.3216 20.8187C22.122 20.9201 21.9615 21.0569 21.8642 21.1886C21.7474 21.3609 21.6257 21.442 21.2316 21.6295L20.745 21.8576L20.4871 21.3255C20.346 21.0366 20.2146 20.8035 20.1951 20.8136C20.1756 20.8238 20.0735 20.8744 19.9664 20.9302C19.8594 20.9859 19.762 21.0366 19.7523 21.0417C19.7426 21.0518 19.7718 21.1481 19.8204 21.2596C19.8691 21.3711 19.8934 21.4775 19.8788 21.4927C19.8642 21.513 19.835 21.4674 19.8204 21.3964C19.762 21.1684 19.6793 21.138 19.4603 21.2647L19.2608 21.3761L19.363 21.5586L19.4652 21.741L19.363 21.6194L19.2608 21.5028L19.0954 21.6447C19.0029 21.7258 18.9251 21.8069 18.9251 21.8322C18.9154 21.9285 19.728 23.4893 19.7864 23.4893C19.8058 23.4893 19.874 23.4437 19.9421 23.388C20.0102 23.3322 20.0881 23.2866 20.1221 23.2866C20.2292 23.2866 20.234 23.1954 20.1367 22.9775C19.9859 22.6228 20.0248 22.5822 20.1902 22.9218L20.3362 23.236L20.4822 23.1549C20.5649 23.1143 20.6428 23.0434 20.6574 23.0029C20.6817 22.942 20.6914 22.942 20.745 23.013C20.8034 23.0991 20.8131 23.0991 20.9834 23.013C21.217 22.8964 21.2364 22.8356 21.1099 22.5822L21.0077 22.3694L21.1926 22.2883C21.2948 22.2478 21.5041 22.1464 21.6549 22.0653L21.9323 21.9184L22.195 22.4403C22.5892 23.2056 22.5989 23.1143 22.0783 23.6262C21.8301 23.8745 21.6014 24.1431 21.5625 24.2343C21.47 24.4725 21.4749 26.0637 21.5673 26.3019C21.6403 26.4792 21.8544 26.6313 22.0393 26.6313C22.0929 26.6313 22.2145 26.5553 22.307 26.459L22.4724 26.2867V25.4809V24.6752L22.706 24.4522C22.8325 24.3255 23.0174 24.1481 23.1147 24.0518L23.2948 23.8795L23.5381 24.3914C23.8057 24.9438 23.9565 25.111 24.1998 25.111C24.4334 25.111 26.0003 24.0468 26.0684 23.839C26.1803 23.4944 25.9662 23.1599 25.645 23.165C25.4699 23.1701 25.2752 23.2765 24.6864 23.6819L24.4431 23.8491L23.9614 22.8204C23.6986 22.2528 23.4407 21.6954 23.3921 21.5738L23.3045 21.3609L23.5527 21.2292L23.8008 21.0974L23.8933 21.214C23.9468 21.2799 24.1074 21.513 24.2534 21.7309C24.5356 22.1414 24.6329 22.2224 24.8178 22.2224C24.9833 22.2224 25.2412 22.04 25.2752 21.893C25.3287 21.6751 25.2558 21.5282 24.8957 21.1025C24.6232 20.7832 24.5648 20.6819 24.6183 20.6464C24.6572 20.6211 24.701 20.6008 24.7254 20.6008C24.7448 20.6008 24.847 20.5451 24.9541 20.4741L25.1487 20.3474L25.1974 20.4792C25.2266 20.5501 25.3142 20.7072 25.392 20.8339L25.5429 21.0569L25.757 20.9403C25.8737 20.8795 25.9759 20.8086 25.9759 20.7832C25.9759 20.7579 25.9078 20.616 25.8299 20.464C25.6596 20.1498 25.6742 20.1042 25.8543 20.3981C25.9857 20.6109 26.1122 20.6565 26.2192 20.5248C26.2679 20.464 26.2679 20.4184 26.2241 20.3119C26.1414 20.1244 26.1949 20.1042 26.2874 20.2917L26.3652 20.4488L26.5355 20.3626C26.6718 20.2967 26.701 20.2562 26.6766 20.1751C26.6231 19.9927 25.8932 18.5535 25.8494 18.5433C25.8251 18.5383 25.6694 18.5991 25.5039 18.6852Z" fill="white"/>
<path d="M21.4846 18.8829C21.1975 18.9538 21.0223 19.0704 20.8909 19.2731C20.5065 19.8812 20.8958 20.7224 21.5965 20.7934C22.0442 20.8339 22.5065 20.4488 22.5941 19.9572C22.667 19.5518 22.3653 19.0552 21.9517 18.9082C21.8252 18.8626 21.7133 18.8271 21.6987 18.8322C21.6841 18.8373 21.5868 18.8575 21.4846 18.8829Z" fill="white"/>
<path d="M7.82571 19.2173C7.75758 19.2275 7.4121 19.3288 7.06175 19.4454L6.41457 19.6532V21.8525C6.41457 23.6312 6.42916 24.0569 6.47782 24.0772C6.51675 24.0924 6.75032 24.0316 7.00335 23.9454C8.01062 23.6008 8.51182 23.5603 9.17846 23.7681L9.28551 23.8035V21.6549C9.28551 19.2123 9.31957 19.3947 8.86703 19.2528C8.65293 19.1869 8.1128 19.1667 7.82571 19.2173ZM8.55561 20.5248C8.6578 20.6565 8.58967 20.7731 8.3853 20.8187C8.27825 20.844 7.96196 20.9201 7.68459 20.9859C7.30018 21.0822 7.1688 21.0974 7.11527 21.0518C6.92063 20.8846 7.10554 20.7478 7.75272 20.5805C8.32204 20.4336 8.47289 20.4234 8.55561 20.5248ZM8.53128 21.5941C8.69672 21.7664 8.60427 21.8373 8.06901 21.9488C7.78678 22.0096 7.46562 22.0805 7.35371 22.111C7.125 22.1667 7.02282 22.1059 7.05688 21.9336C7.08121 21.7917 7.72352 21.5941 8.39503 21.518C8.42423 21.518 8.48749 21.5484 8.53128 21.5941ZM8.58967 22.8154C8.63347 22.9319 8.49722 23.013 8.20039 23.0535C8.06414 23.0738 7.77705 23.1346 7.56294 23.1904C7.12987 23.3069 7.04715 23.2917 7.04715 23.1143C7.04715 22.9674 7.22232 22.8863 7.77705 22.7596C8.3999 22.6228 8.52155 22.6329 8.58967 22.8154Z" fill="white"/>
<path d="M10.1857 19.2275C9.97162 19.2832 9.8305 19.3744 9.77211 19.4859C9.71372 19.5974 9.70399 23.7225 9.76238 23.763C9.78184 23.7731 9.91809 23.7529 10.0641 23.7123C10.5799 23.5755 11.1638 23.6414 12.0494 23.9505C12.4095 24.0772 12.5165 24.0924 12.5701 24.0468C12.6333 23.991 12.6431 23.6616 12.6431 21.8373V19.6937L12.5117 19.6177C12.4338 19.5822 12.1565 19.4758 11.8888 19.3846C11.4947 19.2528 11.3 19.2224 10.867 19.2072C10.575 19.192 10.2684 19.2021 10.1857 19.2275ZM11.2124 20.5653C11.7477 20.692 11.9618 20.8035 11.9618 20.9505C11.9618 21.0822 11.8596 21.1126 11.6358 21.0467C11.5336 21.0163 11.2222 20.9454 10.94 20.8846C10.5409 20.7984 10.4242 20.7579 10.4144 20.6869C10.3901 20.5653 10.4923 20.4488 10.6188 20.4488C10.6723 20.4488 10.9448 20.5045 11.2124 20.5653ZM11.4703 21.6701C11.8791 21.7815 11.9715 21.8424 11.9521 21.9893C11.9326 22.116 11.884 22.116 11.2076 21.9995C10.5117 21.8778 10.4339 21.8525 10.4096 21.741C10.3658 21.4927 10.7113 21.4674 11.4703 21.6701ZM11.3487 22.7849C11.8986 22.9167 11.9618 22.9522 11.9618 23.1143C11.9618 23.2917 11.8791 23.3069 11.4703 23.1904C11.2708 23.1346 10.9643 23.0637 10.7794 23.0282C10.429 22.9674 10.3804 22.937 10.429 22.7799C10.4728 22.643 10.7648 22.643 11.3487 22.7849Z" fill="white"/>
<path d="M5.83065 19.8356C5.83065 20.0687 5.78686 20.1396 5.61168 20.1751L5.45597 20.2055L5.4219 20.7174C5.40731 21.0011 5.39757 21.8728 5.40731 22.6532C5.42677 24.209 5.4365 24.2698 5.72846 24.6194C5.9231 24.8475 6.25886 24.9843 6.60921 24.9792C6.75519 24.9742 7.17853 24.888 7.54835 24.7867C7.92303 24.6853 8.33664 24.6042 8.48749 24.6042H8.75025L8.72592 24.7917C8.70646 24.9742 8.57021 26.3728 8.54102 26.7174C8.53128 26.8086 8.54102 26.8847 8.55561 26.8847C8.57508 26.8847 8.79891 26.6617 9.05681 26.388L9.52395 25.8914L10.0008 26.388C10.2587 26.6566 10.4826 26.8745 10.4923 26.8593C10.5117 26.8391 10.3804 25.2275 10.3268 24.8171L10.2976 24.6042H10.5458C10.828 24.6042 11.0762 24.66 11.6455 24.8424C12.5847 25.1515 13.3389 24.8982 13.5627 24.2039C13.5968 24.0873 13.6163 23.4083 13.6163 22.0907V20.1447H13.4508C13.2854 20.1447 13.2805 20.1396 13.2659 19.9319C13.2562 19.7596 13.2318 19.719 13.1443 19.7089L13.0323 19.6886V21.8373C13.0323 23.0839 13.0129 24.0417 12.9837 24.1177C12.9302 24.2698 12.7063 24.4015 12.4971 24.4015C12.4144 24.4015 12.0689 24.3154 11.7283 24.214C11.1833 24.0468 11.047 24.0215 10.575 24.0215C10.1273 24.0215 10.0008 24.0417 9.81104 24.1329C9.67966 24.1938 9.57748 24.2698 9.57748 24.2951C9.57748 24.3255 9.54341 24.3508 9.50449 24.3508C9.46556 24.3508 9.4315 24.3306 9.4315 24.3103C9.4315 24.285 9.34877 24.2292 9.25145 24.1836C8.70159 23.9353 8.20526 23.9454 7.31965 24.2191C6.54109 24.4623 6.32698 24.4573 6.11288 24.1785C6.03502 24.0823 6.02529 23.8796 6.02529 21.8778C6.02529 19.7241 6.02529 19.6886 5.92797 19.6886C5.85498 19.6886 5.83065 19.7241 5.83065 19.8356Z" fill="white"/>
<path d="M3.60202 22.861C3.50957 22.9015 3.13488 23.0839 2.76507 23.2613C2.20061 23.54 2.04976 23.5907 1.83079 23.5907C1.58263 23.5907 1.56803 23.6008 1.48044 23.763C1.36852 23.9809 1.37825 24.0062 1.79673 24.8475C3.18841 27.6448 5.33918 30.0367 7.85978 31.6026C9.84024 32.829 11.6942 33.5283 13.9082 33.883C14.5019 33.9793 14.823 33.9996 15.9519 33.9996C17.4118 34.0047 17.8935 33.9641 19.0175 33.726C22.2437 33.0418 25.3239 31.2884 27.3919 28.9573C28.6376 27.5485 29.3675 26.4944 30.1218 25.0096C30.5159 24.2394 30.5792 24.0366 30.5062 23.7985L30.4527 23.6008L30.1218 23.5806C29.8395 23.5603 29.6887 23.5045 28.9783 23.1599C28.5111 22.9319 28.1462 22.7849 28.1218 22.8103C28.1024 22.8356 27.9321 23.1498 27.752 23.5147C26.8372 25.3441 25.4407 27.1127 23.9565 28.3188C21.9663 29.9354 19.4019 31.0097 17.0371 31.2225L16.6332 31.258V31.9624C16.6332 32.4996 16.6137 32.7023 16.5602 32.8188C16.385 33.1685 15.8936 33.28 15.6113 33.0368C15.3534 32.8087 15.3194 32.6871 15.3194 31.9371V31.2631L14.6479 31.1769C11.845 30.8171 8.72106 29.2208 6.75033 27.138C5.7236 26.0536 4.84285 24.7968 4.22487 23.5248C4.02536 23.1143 3.84045 22.7799 3.81126 22.7849C3.78693 22.7849 3.68961 22.8204 3.60202 22.861ZM4.10322 25.2377C4.35625 25.4961 4.18594 25.9218 3.83072 25.9218C3.54363 25.9218 3.41224 25.7596 3.44631 25.4404C3.4755 25.1313 3.88425 25.0046 4.10322 25.2377ZM27.6742 26.0536C27.9418 26.2613 28.1705 26.4691 28.1851 26.5097C28.2289 26.6211 28.0342 26.8847 27.9126 26.8847C27.8542 26.8847 27.7326 26.8238 27.6352 26.7478C27.3238 26.5097 26.8518 26.0688 26.8518 26.0181C26.8518 25.9319 27.061 25.6684 27.1292 25.6684C27.1681 25.6684 27.4114 25.8407 27.6742 26.0536ZM6.29292 27.5181L6.4243 27.7005L6.20533 27.9641C5.71873 28.5418 5.60195 28.6583 5.47543 28.6583C5.32459 28.6583 5.12995 28.3999 5.16887 28.2631C5.21267 28.1313 5.9961 27.3407 6.08855 27.3407C6.12748 27.3407 6.21993 27.4218 6.29292 27.5181ZM8.34638 29.8847C8.49236 30.0266 8.49722 30.3053 8.35124 30.4675C8.12254 30.7259 7.67973 30.5283 7.67973 30.1735C7.67973 29.8188 8.09334 29.6364 8.34638 29.8847ZM21.2316 31.3695C21.4846 31.628 21.3143 32.0536 20.9591 32.0536C20.7401 32.0536 20.526 31.8813 20.526 31.6989C20.526 31.5671 20.6476 31.3087 20.7304 31.2783C20.8958 31.2073 21.1196 31.2479 21.2316 31.3695ZM11.6261 31.4709C11.8694 31.6077 11.9132 31.9269 11.7137 32.1499C11.6115 32.2614 11.3828 32.2918 11.2368 32.2057C11.1151 32.1398 11.0178 31.8813 11.0567 31.7242C11.0859 31.6077 11.3341 31.3948 11.4412 31.3948C11.4606 31.3948 11.5433 31.4303 11.6261 31.4709Z" fill="white"/>
<path d="M14.1174 24.9995C13.626 25.1819 13.2902 25.5063 13.0421 26.0232C12.9253 26.2765 12.9107 26.3576 12.9107 26.8593C12.9107 27.3914 12.9204 27.437 13.0761 27.7715C13.227 28.0908 13.3827 28.2681 14.6089 29.53L15.9763 30.9337L17.2317 29.6313C17.9227 28.9168 18.565 28.2225 18.6574 28.0908C18.9202 27.7259 19.0321 27.3407 19.0321 26.834C19.0321 26.0536 18.672 25.4201 18.0589 25.1009C17.7621 24.9488 17.6891 24.9336 17.2901 24.9336C16.7694 24.9336 16.4823 25.0451 16.1612 25.3796L15.9519 25.5873L15.7476 25.3796C15.334 24.959 14.6527 24.8019 14.1174 24.9995ZM14.1564 25.9776C14.2488 26.0738 14.2488 26.089 14.1807 26.1904C13.8887 26.611 13.8304 26.986 14.0104 27.3509L14.1126 27.5587L13.9812 27.6904L13.8547 27.8222L13.7184 27.6549C13.3778 27.2394 13.4021 26.4793 13.7671 26.0485C13.9423 25.8458 14.0153 25.8306 14.1564 25.9776Z" fill="white"/>
</svg>
