<svg width="24" height="23" viewBox="0 0 24 23" fill="none" xmlns="http://www.w3.org/2000/svg">
<path d="M12.2438 23C10.5236 23 8.91102 22.6858 7.4059 22.0574C5.90078 21.4291 4.5902 20.5798 3.47416 19.5096C2.35812 18.4393 1.47245 17.1826 0.817164 15.7393C0.161874 14.296 -0.165771 12.7496 -0.165771 11.1001C-0.165771 8.66512 0.535594 6.45598 1.93832 4.47266C3.34105 2.48934 5.21989 1.03622 7.57484 0.113289C7.86153 0.0151052 8.15846 -0.0192592 8.46563 0.010196C8.7728 0.0396513 9.02877 0.132926 9.23355 0.290021C9.39737 0.427478 9.52535 0.618937 9.61751 0.864398C9.70966 1.10986 9.75573 1.42896 9.75573 1.82169C9.79669 3.373 10.1243 4.85067 10.7387 6.2547C11.353 7.65874 12.2335 8.91058 13.3803 10.0102C14.5271 11.1099 15.8376 11.9543 17.312 12.5434C18.7864 13.1325 20.3325 13.4467 21.9503 13.486C22.3803 13.486 22.7079 13.5203 22.9332 13.5891C23.1585 13.6578 23.3428 13.7707 23.4861 13.9278C23.6499 14.1242 23.7574 14.3794 23.8086 14.6936C23.8598 15.0078 23.8342 15.2925 23.7318 15.5478C22.7899 17.8061 21.2745 19.6126 19.1858 20.9676C17.097 22.3225 14.783 23 12.2438 23ZM17.9878 5.62142L15.8376 4.67885C15.5919 4.58067 15.469 4.40393 15.469 4.14866C15.469 3.89338 15.5919 3.71665 15.8376 3.61846L17.9878 2.67589L18.9707 0.614028C19.0731 0.378386 19.2574 0.260565 19.5236 0.260565C19.7899 0.260565 19.9742 0.378386 20.0765 0.614028L21.0595 2.67589L23.2097 3.61846C23.4554 3.71665 23.5783 3.89338 23.5783 4.14866C23.5783 4.40393 23.4554 4.58067 23.2097 4.67885L21.0595 5.62142L20.0765 7.68328C19.9742 7.91892 19.7899 8.03675 19.5236 8.03675C19.2574 8.03675 19.0731 7.91892 18.9707 7.68328L17.9878 5.62142Z" fill="black"/>
</svg>
