<svg width="28" height="29" viewBox="0 0 28 29" fill="none" xmlns="http://www.w3.org/2000/svg">
<path d="M26.5632 10.211L18.0826 1.43314L18.6783 0.81651C19.2157 0.260337 19.8815 -0.0117049 20.6758 0.000385874C21.4702 0.0124766 22.136 0.296609 22.6733 0.852782L27.194 5.53189C27.7313 6.08807 28 6.77119 28 7.58127C28 8.39135 27.7313 9.07448 27.194 9.63065L26.5632 10.211ZM9.28661 28.1657C8.74927 28.7219 8.08928 29 7.30663 29C6.52399 29 5.864 28.7219 5.32666 28.1657L0.806008 23.4866C0.268669 22.9305 0 22.2473 0 21.4372C0 20.6272 0.268669 19.944 0.806008 19.3879L1.36671 18.8075L9.84731 27.5854L9.28661 28.1657ZM14.368 27.1501C14.0876 27.4403 13.7605 27.5854 13.3867 27.5854C13.0129 27.5854 12.6859 27.4403 12.4055 27.1501L1.78723 16.1596C1.50688 15.8695 1.36671 15.5309 1.36671 15.144C1.36671 14.7571 1.50688 14.4186 1.78723 14.1284L3.78473 12.0246C4.06508 11.7344 4.398 11.5893 4.78348 11.5893C5.16896 11.5893 5.50188 11.7344 5.78223 12.0246L7.98999 14.3098L13.8073 8.28858L11.5995 6.00343C11.3191 5.71326 11.179 5.37471 11.179 4.98781C11.179 4.60091 11.3191 4.26237 11.5995 3.97219L13.597 1.8684C13.8773 1.57823 14.2103 1.43314 14.5957 1.43314C14.9812 1.43314 15.3141 1.57823 15.5945 1.8684L26.2128 12.8589C26.4931 13.1491 26.6333 13.4936 26.6333 13.8926C26.6333 14.2916 26.4931 14.6362 26.2128 14.9264L24.1802 16.9939C23.8999 17.2841 23.5728 17.4292 23.199 17.4292C22.8252 17.4292 22.4981 17.2841 22.2178 16.9939L20.01 14.7088L14.1927 20.7299L16.4005 23.0151C16.6809 23.3053 16.821 23.6499 16.821 24.0488C16.821 24.4478 16.6809 24.7924 16.4005 25.0826L14.368 27.1501Z" fill="black"/>
</svg>
